<svg width="16" height="10" viewBox="0 0 16 10" fill="none" xmlns="http://www.w3.org/2000/svg">
<path d="M13.5309 0.435888L13.5296 0.437066L5.88778 7.17373L2.47078 4.16144C2.47071 4.16137 2.47064 4.16131 2.47056 4.16124C2.37155 4.07335 2.23682 4.0239 2.09629 4.0239C1.95572 4.0239 1.82098 4.07336 1.72196 4.1613C1.72191 4.16135 1.72186 4.16139 1.7218 4.16144L1.15601 4.6602C1.15595 4.66027 1.15587 4.66033 1.1558 4.6604C1.05608 4.74769 1 4.86645 1 4.99034C1 5.11425 1.05611 5.23304 1.15587 5.32033C1.15592 5.32038 1.15596 5.32042 1.15601 5.32046L5.51733 9.1652C5.51741 9.16529 5.5175 9.16529 5.51758 9.16537C5.61659 9.25328 5.75131 9.30273 5.89183 9.30273C6.03235 9.30273 6.16705 9.25328 6.26606 9.16537C6.26614 9.16529 6.26623 9.16529 6.26631 9.1652L14.844 1.60353C14.844 1.60351 14.8441 1.60348 14.8441 1.60346C14.9439 1.51616 15 1.39735 15 1.27341C15 1.14963 14.944 1.03097 14.8445 0.943699C14.8443 0.943561 14.8442 0.943422 14.844 0.943275L14.2785 0.437603V0.437586L14.2765 0.435888C14.0687 0.25835 13.7386 0.25835 13.5309 0.435888Z" fill="white" stroke="white" stroke-width="0.25"/>
</svg>
