<?xml version="1.0" encoding="UTF-8"?>
<svg width="209px" height="135px" viewBox="0 0 209 135" version="1.1" xmlns="http://www.w3.org/2000/svg" xmlns:xlink="http://www.w3.org/1999/xlink">
    <title>Artboard Copy 6</title>
    <g id="Artboard-Copy-6" stroke="none" stroke-width="1" fill="none" fill-rule="evenodd">
        <rect fill="#F9F9F9" x="0" y="0" width="209" height="135"></rect>
        <g id="Group-4" transform="translate(6.8371, 24.0423)">
            <rect id="Rectangle-Copy-6" stroke="#BBBBBB" stroke-width="2.5" fill="#FFFFFF" stroke-linecap="round" stroke-linejoin="round" x="0" y="0" width="60" height="86" rx="2.5"></rect>
            <rect id="Rectangle-Copy-7" fill="#DEDEDE" x="7.2" y="66" width="46.4" height="12" rx="2.5"></rect>
            <g id="Group-3" transform="translate(7.6629, 35.9577)">
                <g id="Group" transform="translate(0, 16)">
                    <line x1="8" y1="1.5" x2="35" y2="1.5" id="Line-Copy-7" stroke="#BBBBBB" stroke-width="3" stroke-linecap="round" stroke-linejoin="bevel"></line>
                    <circle id="Oval" fill="#BBBBBB" cx="1.5" cy="1.5" r="1.5"></circle>
                </g>
                <g id="Group-Copy" transform="translate(0, 8)">
                    <line x1="8" y1="1.5" x2="35" y2="1.5" id="Line-Copy-7" stroke="#BBBBBB" stroke-width="3" stroke-linecap="round" stroke-linejoin="bevel"></line>
                    <circle id="Oval" fill="#BBBBBB" cx="1.5" cy="1.5" r="1.5"></circle>
                </g>
                <g id="Group-Copy-2">
                    <line x1="8" y1="1.5" x2="35" y2="1.5" id="Line-Copy-7" stroke="#BBBBBB" stroke-width="3" stroke-linecap="round" stroke-linejoin="bevel"></line>
                    <circle id="Oval" fill="#BBBBBB" cx="1.5" cy="1.5" r="1.5"></circle>
                </g>
            </g>
            <g id="Group-2" transform="translate(9.6629, 11.4577)" stroke="#BBBBBB" stroke-linecap="round" stroke-linejoin="bevel" stroke-width="3">
                <line x1="0" y1="0.5" x2="37" y2="0.5" id="Line-Copy-8"></line>
                <line x1="0" y1="7.5" x2="22" y2="7.5" id="Line-Copy-9"></line>
                <line x1="0" y1="14.5" x2="29" y2="14.5" id="Line-Copy-10"></line>
            </g>
        </g>
        <g id="Group-4-Copy" transform="translate(74.8371, 24.0423)">
            <rect id="Rectangle-Copy-6" stroke="#6466F1" stroke-width="2.5" fill="#FFFFFF" stroke-linecap="round" stroke-linejoin="round" x="0" y="0" width="60" height="86" rx="2.5"></rect>
            <rect id="Rectangle-Copy-7" fill="#6466F1" x="7.2" y="66" width="46.4" height="12" rx="2.5"></rect>
            <g id="Group-3" transform="translate(7.6629, 35.9577)">
                <g id="Group" transform="translate(0, 16)">
                    <line x1="8" y1="1.5" x2="35" y2="1.5" id="Line-Copy-7" stroke="#BBBBBB" stroke-width="3" stroke-linecap="round" stroke-linejoin="bevel"></line>
                    <circle id="Oval" fill="#BBBBBB" cx="1.5" cy="1.5" r="1.5"></circle>
                </g>
                <g id="Group-Copy" transform="translate(0, 8)">
                    <line x1="8" y1="1.5" x2="35" y2="1.5" id="Line-Copy-7" stroke="#BBBBBB" stroke-width="3" stroke-linecap="round" stroke-linejoin="bevel"></line>
                    <circle id="Oval" fill="#BBBBBB" cx="1.5" cy="1.5" r="1.5"></circle>
                </g>
                <g id="Group-Copy-2">
                    <line x1="8" y1="1.5" x2="35" y2="1.5" id="Line-Copy-7" stroke="#BBBBBB" stroke-width="3" stroke-linecap="round" stroke-linejoin="bevel"></line>
                    <circle id="Oval" fill="#BBBBBB" cx="1.5" cy="1.5" r="1.5"></circle>
                </g>
            </g>
            <g id="Group-2" transform="translate(9.6629, 11.4577)" stroke="#BBBBBB" stroke-linecap="round" stroke-linejoin="bevel" stroke-width="3">
                <line x1="0" y1="0.5" x2="37" y2="0.5" id="Line-Copy-8"></line>
                <line x1="0" y1="7.5" x2="22" y2="7.5" id="Line-Copy-9"></line>
                <line x1="0" y1="14.5" x2="29" y2="14.5" id="Line-Copy-10"></line>
            </g>
        </g>
        <g id="Group-4-Copy-2" transform="translate(142.8371, 24.0423)">
            <rect id="Rectangle-Copy-6" stroke="#BBBBBB" stroke-width="2.5" fill="#FFFFFF" stroke-linecap="round" stroke-linejoin="round" x="0" y="0" width="60" height="86" rx="2.5"></rect>
            <rect id="Rectangle-Copy-7" fill="#DEDEDE" x="7.2" y="66" width="46.4" height="12" rx="2.5"></rect>
            <g id="Group-3" transform="translate(7.6629, 35.9577)">
                <g id="Group" transform="translate(0, 16)">
                    <line x1="8" y1="1.5" x2="35" y2="1.5" id="Line-Copy-7" stroke="#BBBBBB" stroke-width="3" stroke-linecap="round" stroke-linejoin="bevel"></line>
                    <circle id="Oval" fill="#BBBBBB" cx="1.5" cy="1.5" r="1.5"></circle>
                </g>
                <g id="Group-Copy" transform="translate(0, 8)">
                    <line x1="8" y1="1.5" x2="35" y2="1.5" id="Line-Copy-7" stroke="#BBBBBB" stroke-width="3" stroke-linecap="round" stroke-linejoin="bevel"></line>
                    <circle id="Oval" fill="#BBBBBB" cx="1.5" cy="1.5" r="1.5"></circle>
                </g>
                <g id="Group-Copy-2">
                    <line x1="8" y1="1.5" x2="35" y2="1.5" id="Line-Copy-7" stroke="#BBBBBB" stroke-width="3" stroke-linecap="round" stroke-linejoin="bevel"></line>
                    <circle id="Oval" fill="#BBBBBB" cx="1.5" cy="1.5" r="1.5"></circle>
                </g>
            </g>
            <g id="Group-2" transform="translate(9.6629, 11.4577)" stroke="#BBBBBB" stroke-linecap="round" stroke-linejoin="bevel" stroke-width="3">
                <line x1="0" y1="0.5" x2="37" y2="0.5" id="Line-Copy-8"></line>
                <line x1="0" y1="7.5" x2="22" y2="7.5" id="Line-Copy-9"></line>
                <line x1="0" y1="14.5" x2="29" y2="14.5" id="Line-Copy-10"></line>
            </g>
        </g>
    </g>
</svg>